<mxfile host="Electron" modified="2024-07-23T12:24:26.785Z" agent="Mozilla/5.0 (X11; Linux x86_64) AppleWebKit/537.36 (KHTML, like Gecko) draw.io/24.5.3 Chrome/124.0.6367.207 Electron/30.0.6 Safari/537.36" etag="21fXgiNt1CkPIhaKOnpO" version="24.5.3" type="device">
  <diagram id="3228e29e-7158-1315-38df-8450db1d8a1d" name="Page-1">
    <mxGraphModel dx="1384" dy="843" grid="1" gridSize="10" guides="1" tooltips="1" connect="1" arrows="1" fold="1" page="1" pageScale="1" pageWidth="1169" pageHeight="827" background="none" math="0" shadow="0">
      <root>
        <mxCell id="0" />
        <mxCell id="1" parent="0" />
        <mxCell id="21532" value="" style="ellipse;fillColor=#12AAB5;opacity=60;strokeColor=none;html=1;fontColor=#FFFFFF;" parent="1" vertex="1">
          <mxGeometry x="300" y="245.75" width="319.5" height="328.5" as="geometry" />
        </mxCell>
        <mxCell id="21533" value="" style="ellipse;fillColor=#e85642;opacity=60;strokeColor=none;html=1;fontColor=#FFFFFF;" parent="1" vertex="1">
          <mxGeometry x="460" y="245.75" width="320.5" height="328.5" as="geometry" />
        </mxCell>
        <mxCell id="21534" value="Real Time&amp;nbsp;&lt;div&gt;Data&lt;/div&gt;" style="text;fontSize=20;align=center;verticalAlign=middle;html=1;fontColor=#FFFFFF;" parent="1" vertex="1">
          <mxGeometry x="320" y="375" width="140" height="70" as="geometry" />
        </mxCell>
        <mxCell id="21535" value="Meta Data" style="text;fontSize=20;align=center;verticalAlign=middle;html=1;fontColor=#FFFFFF;" parent="1" vertex="1">
          <mxGeometry x="640" y="375" width="140" height="70" as="geometry" />
        </mxCell>
        <mxCell id="21537" value="Full&lt;div&gt;State&lt;/div&gt;" style="text;align=center;html=1;fontColor=#FFFFFF;fontSize=24;" parent="1" vertex="1">
          <mxGeometry x="460" y="379" width="170" height="69" as="geometry" />
        </mxCell>
        <mxCell id="sF0XsYDjnrkiR85lDvcK-21541" value="Temperature&lt;div&gt;Humidity&lt;/div&gt;&lt;div&gt;CO2&lt;/div&gt;" style="sketch=0;outlineConnect=0;fontColor=#232F3E;gradientColor=none;fillColor=#7AA116;strokeColor=none;dashed=0;verticalLabelPosition=bottom;verticalAlign=top;align=center;html=1;fontSize=12;fontStyle=0;aspect=fixed;pointerEvents=1;shape=mxgraph.aws4.iot_thing_temperature_humidity_sensor;" vertex="1" parent="1">
          <mxGeometry x="140" y="180" width="78" height="78" as="geometry" />
        </mxCell>
        <mxCell id="sF0XsYDjnrkiR85lDvcK-21542" value="Weather" style="html=1;verticalLabelPosition=bottom;align=center;labelBackgroundColor=#ffffff;verticalAlign=top;strokeWidth=2;strokeColor=#0080F0;shadow=0;dashed=0;shape=mxgraph.ios7.icons.sun;pointerEvents=1" vertex="1" parent="1">
          <mxGeometry x="151" y="330" width="56" height="59.25" as="geometry" />
        </mxCell>
        <mxCell id="sF0XsYDjnrkiR85lDvcK-21543" value="Occupancy" style="verticalLabelPosition=bottom;sketch=0;html=1;fillColor=#282828;strokeColor=none;verticalAlign=top;pointerEvents=1;align=center;shape=mxgraph.cisco_safe.people_places_things_icons.icon2;" vertex="1" parent="1">
          <mxGeometry x="154" y="450" width="50" height="41" as="geometry" />
        </mxCell>
        <mxCell id="sF0XsYDjnrkiR85lDvcK-21547" value="Power demand&lt;div&gt;Utility cost&lt;/div&gt;" style="image;aspect=fixed;html=1;points=[];align=center;fontSize=12;image=img/lib/azure2/general/Power.svg;" vertex="1" parent="1">
          <mxGeometry x="163.47" y="550" width="31.06" height="48" as="geometry" />
        </mxCell>
        <mxCell id="sF0XsYDjnrkiR85lDvcK-21548" value="" style="shape=curlyBracket;whiteSpace=wrap;html=1;rounded=1;flipH=1;labelPosition=right;verticalLabelPosition=middle;align=left;verticalAlign=middle;fontStyle=1;fontSize=15;strokeWidth=3;" vertex="1" parent="1">
          <mxGeometry x="240" y="180" width="20" height="460" as="geometry" />
        </mxCell>
        <mxCell id="sF0XsYDjnrkiR85lDvcK-21549" value="Building envelope" style="image;points=[];aspect=fixed;html=1;align=center;shadow=0;dashed=0;image=img/lib/allied_telesis/buildings/Medium_Business_Building.svg;" vertex="1" parent="1">
          <mxGeometry x="890" y="245.75" width="54.6" height="70.19999999999999" as="geometry" />
        </mxCell>
        <mxCell id="sF0XsYDjnrkiR85lDvcK-21550" value="HVAC Properties" style="sketch=0;outlineConnect=0;fontColor=#232F3E;gradientColor=none;fillColor=#7AA116;strokeColor=none;dashed=0;verticalLabelPosition=bottom;verticalAlign=top;align=center;html=1;fontSize=12;fontStyle=0;aspect=fixed;pointerEvents=1;shape=mxgraph.aws4.hardware_board;" vertex="1" parent="1">
          <mxGeometry x="878.3" y="369.2" width="78" height="78" as="geometry" />
        </mxCell>
        <mxCell id="sF0XsYDjnrkiR85lDvcK-21551" value="Schedules" style="sketch=0;outlineConnect=0;fontColor=#232F3E;gradientColor=none;fillColor=#E7157B;strokeColor=none;dashed=0;verticalLabelPosition=bottom;verticalAlign=top;align=center;html=1;fontSize=12;fontStyle=0;aspect=fixed;pointerEvents=1;shape=mxgraph.aws4.eventbridge_scheduler;" vertex="1" parent="1">
          <mxGeometry x="882.5999999999999" y="497.45" width="62" height="62" as="geometry" />
        </mxCell>
        <mxCell id="sF0XsYDjnrkiR85lDvcK-21552" value="" style="shape=curlyBracket;whiteSpace=wrap;html=1;rounded=1;flipH=1;labelPosition=right;verticalLabelPosition=middle;align=left;verticalAlign=middle;fontStyle=1;fontSize=15;strokeWidth=3;rotation=-180;" vertex="1" parent="1">
          <mxGeometry x="840" y="180" width="20" height="460" as="geometry" />
        </mxCell>
      </root>
    </mxGraphModel>
  </diagram>
</mxfile>
